# xmcd
#
# Track frame offsets: 
#        150
#        12003
#        43970
#        54990
#        80753
#        96663
#        115228
#        146822
#        161217
#
# Disc length: 2346 seconds
#
# Revision: 1
# Processed by: cddbd v1.5.2PL0 Copyright (c) Steve Scherf et al.
# Submitted via: ExactAudioCopyFreeDBPlugin 1.0
#
DISCID=7f092809
DTITLE=Livin´ Blues - Rocking at the Tweed Mill
DYEAR=1973
DGENRE=Blues
TTITLE0=Shady Girl Shady Girl
TTITLE1=Fool on you
TTITLE2=Tongue `n`Groove
TTITLE3=You`re a Stranger
TTITLE4=Sweet Suzanne
TTITLE5=Ain´t no use crying
TTITLE6=Diving Duck Blues
TTITLE7=Eye to Eye
TTITLE8=Please don´t leave me
EXTD=
EXTT0=
EXTT1=
EXTT2=
EXTT3=
EXTT4=
EXTT5=
EXTT6=
EXTT7=
EXTT8=
PLAYORDER=
